<svg id="Layer_1" data-name="Layer 1" xmlns="http://www.w3.org/2000/svg" xmlns:xlink="http://www.w3.org/1999/xlink" viewBox="0 0 11.5 19.76" width="20" height="20"><defs><style>.cls-1{fill:url(#linear-gradient);}.cls-2{fill:url(#linear-gradient-2);}.cls-3{fill:url(#linear-gradient-3);}.cls-4{fill:url(#linear-gradient-4);}</style><linearGradient id="linear-gradient" x1="380.75" y1="-305.47" x2="392.25" y2="-305.47" gradientTransform="matrix(1, 0, 0, -1, -376.5, -297.5)" gradientUnits="userSpaceOnUse"><stop offset="0" stop-color="#e6e6e6"/><stop offset="0.01" stop-color="#e9e9e9"/><stop offset="0.09" stop-color="#f4f4f4"/><stop offset="0.2" stop-color="#fbfbfb"/><stop offset="0.49" stop-color="#fdfdfd"/><stop offset="0.8" stop-color="#fbfbfb"/><stop offset="0.91" stop-color="#f4f4f4"/><stop offset="0.99" stop-color="#e9e9e9"/><stop offset="1" stop-color="#e6e6e6"/></linearGradient><linearGradient id="linear-gradient-2" x1="384.96" y1="-314.25" x2="387.81" y2="-314.25" xlink:href="#linear-gradient"/><linearGradient id="linear-gradient-3" x1="385.4" y1="-315.58" x2="387.37" y2="-315.58" xlink:href="#linear-gradient"/><linearGradient id="linear-gradient-4" x1="9.41" y1="2.6" x2="10.36" y2="2.6" gradientTransform="matrix(1, 0, 0, -1, -4.25, 21.88)" xlink:href="#linear-gradient"/></defs><title>lbd-icon</title><g id="Original_Size" data-name="Original Size"><path class="cls-1" d="M10,.12A6,6,0,0,0,4.25,6.26a6.29,6.29,0,0,0,1.66,4.31A4.06,4.06,0,0,1,7,13.31v.23c0,.88.71,2.28,1.59,2.28H11.2c.88,0,1.6-1.4,1.6-2.28h0A4.08,4.08,0,0,1,14,10.7a6.31,6.31,0,0,0,1.79-4.44A6,6,0,0,0,10,.12Z" transform="translate(-4.25 -0.12)"/><path class="cls-2" d="M10.83,16.27H8.94a.48.48,0,0,0-.48.48.47.47,0,0,0,.48.48h1.89a.47.47,0,0,0,.48-.48A.48.48,0,0,0,10.83,16.27Z" transform="translate(-4.25 -0.12)"/><path class="cls-3" d="M10.39,17.6h-1a.47.47,0,0,0-.48.48.48.48,0,0,0,.48.48h1a.48.48,0,0,0,.48-.48.47.47,0,0,0-.48-.48Z" transform="translate(-4.25 -0.12)"/><circle class="cls-4" cx="5.64" cy="19.28" r="0.48"/></g></svg>