<svg id="Layer_1" data-name="Layer 1" xmlns="http://www.w3.org/2000/svg" xmlns:xlink="http://www.w3.org/1999/xlink" viewBox="0 0 252 433"><defs><style>.cls-1{fill:url(#linear-gradient);}.cls-2{fill:url(#linear-gradient-2);}.cls-3{fill:url(#linear-gradient-3);}.cls-4{fill:url(#linear-gradient-4);}</style><linearGradient id="linear-gradient" x1="376.5" y1="491.5" x2="628.5" y2="491.5" gradientUnits="userSpaceOnUse"><stop offset="0" stop-color="#e6e6e6"/><stop offset="0.01" stop-color="#e9e9e9"/><stop offset="0.09" stop-color="#f4f4f4"/><stop offset="0.2" stop-color="#fbfbfb"/><stop offset="0.49" stop-color="#fdfdfd"/><stop offset="0.8" stop-color="#fbfbfb"/><stop offset="0.91" stop-color="#f4f4f4"/><stop offset="0.99" stop-color="#e9e9e9"/><stop offset="1" stop-color="#e6e6e6"/></linearGradient><linearGradient id="linear-gradient-2" x1="468.71" y1="684" x2="531.29" y2="684" xlink:href="#linear-gradient"/><linearGradient id="linear-gradient-3" x1="478.36" y1="713" x2="521.64" y2="713" xlink:href="#linear-gradient"/><linearGradient id="linear-gradient-4" x1="113" y1="422.5" x2="134" y2="422.5" xlink:href="#linear-gradient"/></defs><title>lightbulb-logo-no-text</title><g id="Original_Size" data-name="Original Size"><path class="cls-1" d="M502.5,319.5c-69.59,0-126,60.22-126,134.5,0,36.89,13.91,70.3,36.44,94.6a88.32,88.32,0,0,1,23.52,60v4.9c0,19.31,15.65,50,35,50H528.9c19.31,0,35-30.65,35-50h0a88.55,88.55,0,0,1,25.49-62.11c24.12-24.5,39.15-59.09,39.15-97.43C628.5,379.72,572.09,319.5,502.5,319.5Z" transform="translate(-376.5 -319.5)"/><path class="cls-2" d="M520.79,673.5H479.21a10.5,10.5,0,0,0,0,21h41.58a10.5,10.5,0,0,0,0-21Z" transform="translate(-376.5 -319.5)"/><path class="cls-3" d="M511.14,702.5H488.86a10.5,10.5,0,0,0,0,21h22.28a10.5,10.5,0,0,0,0-21Z" transform="translate(-376.5 -319.5)"/><circle class="cls-4" cx="123.5" cy="422.5" r="10.5"/></g></svg>